<mxfile host="65bd71144e">
    <diagram id="rY99y9VnfubkiotiihBV" name="Page-1">
        <mxGraphModel dx="2335" dy="1224" grid="1" gridSize="10" guides="1" tooltips="1" connect="1" arrows="1" fold="1" page="0" pageScale="1" pageWidth="850" pageHeight="1100" math="0" shadow="1">
            <root>
                <mxCell id="0"/>
                <mxCell id="1" parent="0"/>
                <mxCell id="99" style="edgeStyle=none;html=1;endArrow=ERzeroToMany;endFill=0;startArrow=ERmandOne;startFill=0;" edge="1" parent="1" source="155" target="227">
                    <mxGeometry relative="1" as="geometry">
                        <mxPoint x="160" y="55" as="sourcePoint"/>
                        <mxPoint x="340" y="-10" as="targetPoint"/>
                        <Array as="points">
                            <mxPoint x="210" y="68"/>
                            <mxPoint x="210" y="-150"/>
                        </Array>
                    </mxGeometry>
                </mxCell>
                <mxCell id="124" style="edgeStyle=none;html=1;endArrow=ERzeroToMany;endFill=0;startArrow=ERmandOne;startFill=0;exitX=1;exitY=0.5;exitDx=0;exitDy=0;" edge="1" parent="1" source="172" target="214">
                    <mxGeometry relative="1" as="geometry">
                        <mxPoint x="161" y="118" as="sourcePoint"/>
                        <mxPoint x="230" y="241.1538461538462" as="targetPoint"/>
                        <Array as="points">
                            <mxPoint x="210" y="125"/>
                            <mxPoint x="210" y="447"/>
                        </Array>
                    </mxGeometry>
                </mxCell>
                <mxCell id="133" style="edgeStyle=none;html=1;endArrow=ERzeroToMany;endFill=0;startArrow=ERmandOne;startFill=0;" edge="1" parent="1" source="155" target="178">
                    <mxGeometry relative="1" as="geometry">
                        <mxPoint x="160" y="90" as="sourcePoint"/>
                        <mxPoint x="520" y="90" as="targetPoint"/>
                    </mxGeometry>
                </mxCell>
                <mxCell id="101" style="edgeStyle=none;html=1;endArrow=ERzeroToMany;endFill=0;startArrow=ERmandOne;startFill=0;" edge="1" parent="1" source="178" target="227">
                    <mxGeometry relative="1" as="geometry">
                        <mxPoint x="520" y="55" as="sourcePoint"/>
                        <mxPoint x="384.20000000000005" y="-8.799999999999955" as="targetPoint"/>
                        <Array as="points">
                            <mxPoint x="760" y="-147"/>
                        </Array>
                    </mxGeometry>
                </mxCell>
                <mxCell id="123" style="edgeStyle=none;html=1;endArrow=ERzeroToMany;endFill=0;startArrow=ERmandOne;startFill=0;" edge="1" parent="1" source="178" target="214">
                    <mxGeometry relative="1" as="geometry">
                        <mxPoint x="520" y="136" as="sourcePoint"/>
                        <mxPoint x="430" y="245" as="targetPoint"/>
                        <Array as="points">
                            <mxPoint x="760" y="447"/>
                        </Array>
                    </mxGeometry>
                </mxCell>
                <mxCell id="325" style="edgeStyle=none;html=1;startArrow=ERmandOne;startFill=0;endArrow=ERzeroToMany;endFill=0;exitX=0.25;exitY=1;exitDx=0;exitDy=0;entryX=0.25;entryY=0;entryDx=0;entryDy=0;" edge="1" parent="1" source="155" target="261">
                    <mxGeometry relative="1" as="geometry"/>
                </mxCell>
                <mxCell id="326" style="edgeStyle=none;html=1;startArrow=ERmandOne;startFill=0;endArrow=ERzeroToMany;endFill=0;exitX=0.75;exitY=1;exitDx=0;exitDy=0;entryX=0.75;entryY=0;entryDx=0;entryDy=0;" edge="1" parent="1" source="155" target="261">
                    <mxGeometry relative="1" as="geometry">
                        <Array as="points"/>
                    </mxGeometry>
                </mxCell>
                <mxCell id="327" style="edgeStyle=none;html=1;startArrow=ERmandOne;startFill=0;endArrow=ERzeroToMany;endFill=0;entryX=0.25;entryY=1;entryDx=0;entryDy=0;exitX=0.25;exitY=0;exitDx=0;exitDy=0;" edge="1" parent="1" source="155" target="278">
                    <mxGeometry relative="1" as="geometry">
                        <Array as="points"/>
                    </mxGeometry>
                </mxCell>
                <mxCell id="329" style="edgeStyle=none;html=1;startArrow=ERmandOne;startFill=0;endArrow=ERzeroToMany;endFill=0;exitX=0;exitY=0.5;exitDx=0;exitDy=0;entryX=1;entryY=0.5;entryDx=0;entryDy=0;" edge="1" parent="1" source="162" target="257">
                    <mxGeometry relative="1" as="geometry"/>
                </mxCell>
                <mxCell id="330" style="edgeStyle=none;html=1;startArrow=ERmandOne;startFill=0;endArrow=ERzeroToMany;endFill=0;exitX=0;exitY=0.5;exitDx=0;exitDy=0;entryX=1;entryY=0.5;entryDx=0;entryDy=0;" edge="1" parent="1" source="172" target="320">
                    <mxGeometry relative="1" as="geometry">
                        <Array as="points"/>
                    </mxGeometry>
                </mxCell>
                <mxCell id="375" style="edgeStyle=none;html=1;startArrow=ERmandOne;startFill=0;endArrow=ERzeroToMany;endFill=0;" edge="1" parent="1" source="155" target="352">
                    <mxGeometry relative="1" as="geometry">
                        <mxPoint x="160" as="sourcePoint"/>
                        <Array as="points">
                            <mxPoint x="210" y="68"/>
                            <mxPoint x="210" y="8"/>
                        </Array>
                    </mxGeometry>
                </mxCell>
                <mxCell id="414" style="edgeStyle=none;html=1;startArrow=ERmandOne;startFill=0;endArrow=ERzeroToMany;endFill=0;exitX=1;exitY=0.5;exitDx=0;exitDy=0;entryX=0;entryY=0.5;entryDx=0;entryDy=0;" edge="1" parent="1" source="172" target="381">
                    <mxGeometry relative="1" as="geometry"/>
                </mxCell>
                <mxCell id="417" style="edgeStyle=none;html=1;startArrow=ERmandOne;startFill=0;endArrow=ERzeroToMany;endFill=0;exitX=1;exitY=0.5;exitDx=0;exitDy=0;" edge="1" parent="1" source="172" target="401">
                    <mxGeometry relative="1" as="geometry">
                        <Array as="points">
                            <mxPoint x="210" y="125"/>
                            <mxPoint x="210" y="300"/>
                        </Array>
                    </mxGeometry>
                </mxCell>
                <mxCell id="428" style="edgeStyle=none;html=1;startArrow=ERmandOne;startFill=0;endArrow=ERzeroToMany;endFill=0;entryX=0.75;entryY=1;entryDx=0;entryDy=0;exitX=0.75;exitY=0;exitDx=0;exitDy=0;" edge="1" parent="1" source="155" target="278">
                    <mxGeometry relative="1" as="geometry"/>
                </mxCell>
                <mxCell id="155" value="Users" style="shape=table;startSize=30;container=1;collapsible=1;childLayout=tableLayout;fixedRows=1;rowLines=0;fontStyle=1;align=center;resizeLast=1;fillColor=#60a917;fontColor=#ffffff;strokeColor=#2D7600;" vertex="1" parent="1">
                    <mxGeometry x="-80" y="-40" width="220" height="215" as="geometry">
                        <mxRectangle x="-70" y="-100" width="60" height="30" as="alternateBounds"/>
                    </mxGeometry>
                </mxCell>
                <mxCell id="156" value="" style="shape=partialRectangle;collapsible=0;dropTarget=0;pointerEvents=0;fillColor=none;top=0;left=0;bottom=1;right=0;points=[[0,0.5],[1,0.5]];portConstraint=eastwest;" vertex="1" parent="155">
                    <mxGeometry y="30" width="220" height="30" as="geometry"/>
                </mxCell>
                <mxCell id="157" value="PK" style="shape=partialRectangle;connectable=0;fillColor=none;top=0;left=0;bottom=0;right=0;fontStyle=1;overflow=hidden;" vertex="1" parent="156">
                    <mxGeometry width="30" height="30" as="geometry">
                        <mxRectangle width="30" height="30" as="alternateBounds"/>
                    </mxGeometry>
                </mxCell>
                <mxCell id="158" value="ID" style="shape=partialRectangle;connectable=0;fillColor=none;top=0;left=0;bottom=0;right=0;align=left;spacingLeft=6;fontStyle=5;overflow=hidden;" vertex="1" parent="156">
                    <mxGeometry x="30" width="90" height="30" as="geometry">
                        <mxRectangle width="90" height="30" as="alternateBounds"/>
                    </mxGeometry>
                </mxCell>
                <mxCell id="205" value="INT" style="shape=partialRectangle;connectable=0;fillColor=none;top=0;left=0;bottom=0;right=0;align=left;spacingLeft=6;fontStyle=5;overflow=hidden;" vertex="1" parent="156">
                    <mxGeometry x="120" width="100" height="30" as="geometry">
                        <mxRectangle width="100" height="30" as="alternateBounds"/>
                    </mxGeometry>
                </mxCell>
                <mxCell id="159" value="" style="shape=partialRectangle;collapsible=0;dropTarget=0;pointerEvents=0;fillColor=none;top=0;left=0;bottom=0;right=0;points=[[0,0.5],[1,0.5]];portConstraint=eastwest;" vertex="1" parent="155">
                    <mxGeometry y="60" width="220" height="30" as="geometry"/>
                </mxCell>
                <mxCell id="160" value="" style="shape=partialRectangle;connectable=0;fillColor=none;top=0;left=0;bottom=0;right=0;editable=1;overflow=hidden;" vertex="1" parent="159">
                    <mxGeometry width="30" height="30" as="geometry">
                        <mxRectangle width="30" height="30" as="alternateBounds"/>
                    </mxGeometry>
                </mxCell>
                <mxCell id="161" value="Pseudo" style="shape=partialRectangle;connectable=0;fillColor=none;top=0;left=0;bottom=0;right=0;align=left;spacingLeft=6;overflow=hidden;" vertex="1" parent="159">
                    <mxGeometry x="30" width="90" height="30" as="geometry">
                        <mxRectangle width="90" height="30" as="alternateBounds"/>
                    </mxGeometry>
                </mxCell>
                <mxCell id="206" value="VARCHAR(50)" style="shape=partialRectangle;connectable=0;fillColor=none;top=0;left=0;bottom=0;right=0;align=left;spacingLeft=6;overflow=hidden;" vertex="1" parent="159">
                    <mxGeometry x="120" width="100" height="30" as="geometry">
                        <mxRectangle width="100" height="30" as="alternateBounds"/>
                    </mxGeometry>
                </mxCell>
                <mxCell id="162" value="" style="shape=partialRectangle;collapsible=0;dropTarget=0;pointerEvents=0;fillColor=none;top=0;left=0;bottom=0;right=0;points=[[0,0.5],[1,0.5]];portConstraint=eastwest;" vertex="1" parent="155">
                    <mxGeometry y="90" width="220" height="30" as="geometry"/>
                </mxCell>
                <mxCell id="163" value="" style="shape=partialRectangle;connectable=0;fillColor=none;top=0;left=0;bottom=0;right=0;editable=1;overflow=hidden;" vertex="1" parent="162">
                    <mxGeometry width="30" height="30" as="geometry">
                        <mxRectangle width="30" height="30" as="alternateBounds"/>
                    </mxGeometry>
                </mxCell>
                <mxCell id="164" value="Password" style="shape=partialRectangle;connectable=0;fillColor=none;top=0;left=0;bottom=0;right=0;align=left;spacingLeft=6;overflow=hidden;" vertex="1" parent="162">
                    <mxGeometry x="30" width="90" height="30" as="geometry">
                        <mxRectangle width="90" height="30" as="alternateBounds"/>
                    </mxGeometry>
                </mxCell>
                <mxCell id="207" value="VARCHAR(60)" style="shape=partialRectangle;connectable=0;fillColor=none;top=0;left=0;bottom=0;right=0;align=left;spacingLeft=6;overflow=hidden;" vertex="1" parent="162">
                    <mxGeometry x="120" width="100" height="30" as="geometry">
                        <mxRectangle width="100" height="30" as="alternateBounds"/>
                    </mxGeometry>
                </mxCell>
                <mxCell id="165" value="" style="shape=partialRectangle;collapsible=0;dropTarget=0;pointerEvents=0;fillColor=none;top=0;left=0;bottom=0;right=0;points=[[0,0.5],[1,0.5]];portConstraint=eastwest;" vertex="1" parent="155">
                    <mxGeometry y="120" width="220" height="30" as="geometry"/>
                </mxCell>
                <mxCell id="166" value="" style="shape=partialRectangle;connectable=0;fillColor=none;top=0;left=0;bottom=0;right=0;editable=1;overflow=hidden;" vertex="1" parent="165">
                    <mxGeometry width="30" height="30" as="geometry">
                        <mxRectangle width="30" height="30" as="alternateBounds"/>
                    </mxGeometry>
                </mxCell>
                <mxCell id="167" value="Avatar" style="shape=partialRectangle;connectable=0;fillColor=none;top=0;left=0;bottom=0;right=0;align=left;spacingLeft=6;overflow=hidden;" vertex="1" parent="165">
                    <mxGeometry x="30" width="90" height="30" as="geometry">
                        <mxRectangle width="90" height="30" as="alternateBounds"/>
                    </mxGeometry>
                </mxCell>
                <mxCell id="208" value="VARCHAR(50)" style="shape=partialRectangle;connectable=0;fillColor=none;top=0;left=0;bottom=0;right=0;align=left;spacingLeft=6;overflow=hidden;" vertex="1" parent="165">
                    <mxGeometry x="120" width="100" height="30" as="geometry">
                        <mxRectangle width="100" height="30" as="alternateBounds"/>
                    </mxGeometry>
                </mxCell>
                <mxCell id="172" style="shape=partialRectangle;collapsible=0;dropTarget=0;pointerEvents=0;fillColor=none;top=0;left=0;bottom=0;right=0;points=[[0,0.5],[1,0.5]];portConstraint=eastwest;" vertex="1" parent="155">
                    <mxGeometry y="150" width="220" height="30" as="geometry"/>
                </mxCell>
                <mxCell id="173" style="shape=partialRectangle;connectable=0;fillColor=none;top=0;left=0;bottom=0;right=0;editable=1;overflow=hidden;" vertex="1" parent="172">
                    <mxGeometry width="30" height="30" as="geometry">
                        <mxRectangle width="30" height="30" as="alternateBounds"/>
                    </mxGeometry>
                </mxCell>
                <mxCell id="174" value="2FA" style="shape=partialRectangle;connectable=0;fillColor=none;top=0;left=0;bottom=0;right=0;align=left;spacingLeft=6;overflow=hidden;" vertex="1" parent="172">
                    <mxGeometry x="30" width="90" height="30" as="geometry">
                        <mxRectangle width="90" height="30" as="alternateBounds"/>
                    </mxGeometry>
                </mxCell>
                <mxCell id="209" value="?" style="shape=partialRectangle;connectable=0;fillColor=none;top=0;left=0;bottom=0;right=0;align=left;spacingLeft=6;overflow=hidden;" vertex="1" parent="172">
                    <mxGeometry x="120" width="100" height="30" as="geometry">
                        <mxRectangle width="100" height="30" as="alternateBounds"/>
                    </mxGeometry>
                </mxCell>
                <mxCell id="418" style="shape=partialRectangle;collapsible=0;dropTarget=0;pointerEvents=0;fillColor=none;top=0;left=0;bottom=0;right=0;points=[[0,0.5],[1,0.5]];portConstraint=eastwest;" vertex="1" parent="155">
                    <mxGeometry y="180" width="220" height="30" as="geometry"/>
                </mxCell>
                <mxCell id="419" style="shape=partialRectangle;connectable=0;fillColor=none;top=0;left=0;bottom=0;right=0;editable=1;overflow=hidden;" vertex="1" parent="418">
                    <mxGeometry width="30" height="30" as="geometry">
                        <mxRectangle width="30" height="30" as="alternateBounds"/>
                    </mxGeometry>
                </mxCell>
                <mxCell id="420" value="XP" style="shape=partialRectangle;connectable=0;fillColor=none;top=0;left=0;bottom=0;right=0;align=left;spacingLeft=6;overflow=hidden;" vertex="1" parent="418">
                    <mxGeometry x="30" width="90" height="30" as="geometry">
                        <mxRectangle width="90" height="30" as="alternateBounds"/>
                    </mxGeometry>
                </mxCell>
                <mxCell id="421" value="FLOAT" style="shape=partialRectangle;connectable=0;fillColor=none;top=0;left=0;bottom=0;right=0;align=left;spacingLeft=6;overflow=hidden;" vertex="1" parent="418">
                    <mxGeometry x="120" width="100" height="30" as="geometry">
                        <mxRectangle width="100" height="30" as="alternateBounds"/>
                    </mxGeometry>
                </mxCell>
                <mxCell id="415" style="edgeStyle=none;html=1;startArrow=ERmandOne;startFill=0;endArrow=ERzeroToMany;endFill=0;exitX=0;exitY=0.5;exitDx=0;exitDy=0;" edge="1" parent="1" source="348" target="376">
                    <mxGeometry relative="1" as="geometry">
                        <Array as="points">
                            <mxPoint x="560" y="125"/>
                            <mxPoint x="560" y="143"/>
                        </Array>
                    </mxGeometry>
                </mxCell>
                <mxCell id="416" style="edgeStyle=none;html=1;startArrow=ERmandOne;startFill=0;endArrow=ERzeroToMany;endFill=0;exitX=0.25;exitY=1;exitDx=0;exitDy=0;" edge="1" parent="1" source="178" target="401">
                    <mxGeometry relative="1" as="geometry">
                        <Array as="points">
                            <mxPoint x="700" y="302"/>
                        </Array>
                    </mxGeometry>
                </mxCell>
                <mxCell id="426" style="edgeStyle=none;html=1;startArrow=ERmandOne;startFill=0;endArrow=ERzeroToMany;endFill=0;exitX=0;exitY=0.5;exitDx=0;exitDy=0;entryX=1;entryY=0.25;entryDx=0;entryDy=0;" edge="1" parent="1" source="179" target="352">
                    <mxGeometry relative="1" as="geometry">
                        <Array as="points">
                            <mxPoint x="560" y="5"/>
                            <mxPoint x="560" y="-16"/>
                        </Array>
                    </mxGeometry>
                </mxCell>
                <mxCell id="178" value="Channels" style="shape=table;startSize=30;container=1;collapsible=1;childLayout=tableLayout;fixedRows=1;rowLines=0;fontStyle=1;align=center;resizeLast=1;fillColor=#76608a;fontColor=#ffffff;strokeColor=#432D57;" vertex="1" parent="1">
                    <mxGeometry x="640" y="-40" width="240" height="215" as="geometry">
                        <mxRectangle x="-70" y="-100" width="60" height="30" as="alternateBounds"/>
                    </mxGeometry>
                </mxCell>
                <mxCell id="179" value="" style="shape=partialRectangle;collapsible=0;dropTarget=0;pointerEvents=0;fillColor=none;top=0;left=0;bottom=1;right=0;points=[[0,0.5],[1,0.5]];portConstraint=eastwest;" vertex="1" parent="178">
                    <mxGeometry y="30" width="240" height="30" as="geometry"/>
                </mxCell>
                <mxCell id="180" value="PK" style="shape=partialRectangle;connectable=0;fillColor=none;top=0;left=0;bottom=0;right=0;fontStyle=1;overflow=hidden;" vertex="1" parent="179">
                    <mxGeometry width="30" height="30" as="geometry">
                        <mxRectangle width="30" height="30" as="alternateBounds"/>
                    </mxGeometry>
                </mxCell>
                <mxCell id="181" value="ID" style="shape=partialRectangle;connectable=0;fillColor=none;top=0;left=0;bottom=0;right=0;align=left;spacingLeft=6;fontStyle=5;overflow=hidden;" vertex="1" parent="179">
                    <mxGeometry x="30" width="90" height="30" as="geometry">
                        <mxRectangle width="90" height="30" as="alternateBounds"/>
                    </mxGeometry>
                </mxCell>
                <mxCell id="211" value="INT" style="shape=partialRectangle;connectable=0;fillColor=none;top=0;left=0;bottom=0;right=0;align=left;spacingLeft=6;fontStyle=5;overflow=hidden;" vertex="1" parent="179">
                    <mxGeometry x="120" width="120" height="30" as="geometry">
                        <mxRectangle width="120" height="30" as="alternateBounds"/>
                    </mxGeometry>
                </mxCell>
                <mxCell id="197" style="shape=partialRectangle;collapsible=0;dropTarget=0;pointerEvents=0;fillColor=none;top=0;left=0;bottom=1;right=0;points=[[0,0.5],[1,0.5]];portConstraint=eastwest;" vertex="1" parent="178">
                    <mxGeometry y="60" width="240" height="30" as="geometry"/>
                </mxCell>
                <mxCell id="198" value="FK" style="shape=partialRectangle;connectable=0;fillColor=none;top=0;left=0;bottom=0;right=0;fontStyle=1;overflow=hidden;" vertex="1" parent="197">
                    <mxGeometry width="30" height="30" as="geometry">
                        <mxRectangle width="30" height="30" as="alternateBounds"/>
                    </mxGeometry>
                </mxCell>
                <mxCell id="199" value="Owner" style="shape=partialRectangle;connectable=0;fillColor=none;top=0;left=0;bottom=0;right=0;align=left;spacingLeft=6;fontStyle=5;overflow=hidden;" vertex="1" parent="197">
                    <mxGeometry x="30" width="90" height="30" as="geometry">
                        <mxRectangle width="90" height="30" as="alternateBounds"/>
                    </mxGeometry>
                </mxCell>
                <mxCell id="212" value="INT" style="shape=partialRectangle;connectable=0;fillColor=none;top=0;left=0;bottom=0;right=0;align=left;spacingLeft=6;fontStyle=5;overflow=hidden;" vertex="1" parent="197">
                    <mxGeometry x="120" width="120" height="30" as="geometry">
                        <mxRectangle width="120" height="30" as="alternateBounds"/>
                    </mxGeometry>
                </mxCell>
                <mxCell id="182" value="" style="shape=partialRectangle;collapsible=0;dropTarget=0;pointerEvents=0;fillColor=none;top=0;left=0;bottom=0;right=0;points=[[0,0.5],[1,0.5]];portConstraint=eastwest;" vertex="1" parent="178">
                    <mxGeometry y="90" width="240" height="30" as="geometry"/>
                </mxCell>
                <mxCell id="183" value="" style="shape=partialRectangle;connectable=0;fillColor=none;top=0;left=0;bottom=0;right=0;editable=1;overflow=hidden;" vertex="1" parent="182">
                    <mxGeometry width="30" height="30" as="geometry">
                        <mxRectangle width="30" height="30" as="alternateBounds"/>
                    </mxGeometry>
                </mxCell>
                <mxCell id="184" value="Name" style="shape=partialRectangle;connectable=0;fillColor=none;top=0;left=0;bottom=0;right=0;align=left;spacingLeft=6;overflow=hidden;" vertex="1" parent="182">
                    <mxGeometry x="30" width="90" height="30" as="geometry">
                        <mxRectangle width="90" height="30" as="alternateBounds"/>
                    </mxGeometry>
                </mxCell>
                <mxCell id="213" value="VARCHAR(50)" style="shape=partialRectangle;connectable=0;fillColor=none;top=0;left=0;bottom=0;right=0;align=left;spacingLeft=6;overflow=hidden;" vertex="1" parent="182">
                    <mxGeometry x="120" width="120" height="30" as="geometry">
                        <mxRectangle width="120" height="30" as="alternateBounds"/>
                    </mxGeometry>
                </mxCell>
                <mxCell id="335" style="shape=partialRectangle;collapsible=0;dropTarget=0;pointerEvents=0;fillColor=none;top=0;left=0;bottom=0;right=0;points=[[0,0.5],[1,0.5]];portConstraint=eastwest;" vertex="1" parent="178">
                    <mxGeometry y="120" width="240" height="30" as="geometry"/>
                </mxCell>
                <mxCell id="336" style="shape=partialRectangle;connectable=0;fillColor=none;top=0;left=0;bottom=0;right=0;editable=1;overflow=hidden;" vertex="1" parent="335">
                    <mxGeometry width="30" height="30" as="geometry">
                        <mxRectangle width="30" height="30" as="alternateBounds"/>
                    </mxGeometry>
                </mxCell>
                <mxCell id="337" value="Type" style="shape=partialRectangle;connectable=0;fillColor=none;top=0;left=0;bottom=0;right=0;align=left;spacingLeft=6;overflow=hidden;" vertex="1" parent="335">
                    <mxGeometry x="30" width="90" height="30" as="geometry">
                        <mxRectangle width="90" height="30" as="alternateBounds"/>
                    </mxGeometry>
                </mxCell>
                <mxCell id="338" value="VARCHAR(9)" style="shape=partialRectangle;connectable=0;fillColor=none;top=0;left=0;bottom=0;right=0;align=left;spacingLeft=6;overflow=hidden;" vertex="1" parent="335">
                    <mxGeometry x="120" width="120" height="30" as="geometry">
                        <mxRectangle width="120" height="30" as="alternateBounds"/>
                    </mxGeometry>
                </mxCell>
                <mxCell id="348" style="shape=partialRectangle;collapsible=0;dropTarget=0;pointerEvents=0;fillColor=none;top=0;left=0;bottom=0;right=0;points=[[0,0.5],[1,0.5]];portConstraint=eastwest;" vertex="1" parent="178">
                    <mxGeometry y="150" width="240" height="30" as="geometry"/>
                </mxCell>
                <mxCell id="349" style="shape=partialRectangle;connectable=0;fillColor=none;top=0;left=0;bottom=0;right=0;editable=1;overflow=hidden;" vertex="1" parent="348">
                    <mxGeometry width="30" height="30" as="geometry">
                        <mxRectangle width="30" height="30" as="alternateBounds"/>
                    </mxGeometry>
                </mxCell>
                <mxCell id="350" value="Password" style="shape=partialRectangle;connectable=0;fillColor=none;top=0;left=0;bottom=0;right=0;align=left;spacingLeft=6;overflow=hidden;" vertex="1" parent="348">
                    <mxGeometry x="30" width="90" height="30" as="geometry">
                        <mxRectangle width="90" height="30" as="alternateBounds"/>
                    </mxGeometry>
                </mxCell>
                <mxCell id="351" value="VARCHAR(60)" style="shape=partialRectangle;connectable=0;fillColor=none;top=0;left=0;bottom=0;right=0;align=left;spacingLeft=6;overflow=hidden;" vertex="1" parent="348">
                    <mxGeometry x="120" width="120" height="30" as="geometry">
                        <mxRectangle width="120" height="30" as="alternateBounds"/>
                    </mxGeometry>
                </mxCell>
                <mxCell id="339" style="shape=partialRectangle;collapsible=0;dropTarget=0;pointerEvents=0;fillColor=none;top=0;left=0;bottom=0;right=0;points=[[0,0.5],[1,0.5]];portConstraint=eastwest;" vertex="1" parent="178">
                    <mxGeometry y="180" width="240" height="30" as="geometry"/>
                </mxCell>
                <mxCell id="340" style="shape=partialRectangle;connectable=0;fillColor=none;top=0;left=0;bottom=0;right=0;editable=1;overflow=hidden;" vertex="1" parent="339">
                    <mxGeometry width="30" height="30" as="geometry">
                        <mxRectangle width="30" height="30" as="alternateBounds"/>
                    </mxGeometry>
                </mxCell>
                <mxCell id="341" value="CreationDate" style="shape=partialRectangle;connectable=0;fillColor=none;top=0;left=0;bottom=0;right=0;align=left;spacingLeft=6;overflow=hidden;" vertex="1" parent="339">
                    <mxGeometry x="30" width="90" height="30" as="geometry">
                        <mxRectangle width="90" height="30" as="alternateBounds"/>
                    </mxGeometry>
                </mxCell>
                <mxCell id="342" value="TIMESTAMP" style="shape=partialRectangle;connectable=0;fillColor=none;top=0;left=0;bottom=0;right=0;align=left;spacingLeft=6;overflow=hidden;" vertex="1" parent="339">
                    <mxGeometry x="120" width="120" height="30" as="geometry">
                        <mxRectangle width="120" height="30" as="alternateBounds"/>
                    </mxGeometry>
                </mxCell>
                <mxCell id="214" value="ChannelsUsers" style="shape=table;startSize=30;container=1;collapsible=1;childLayout=tableLayout;fixedRows=1;rowLines=0;fontStyle=1;align=center;resizeLast=1;fillColor=#76608a;fontColor=#ffffff;strokeColor=#432D57;" vertex="1" parent="1">
                    <mxGeometry x="280" y="400" width="200" height="95" as="geometry">
                        <mxRectangle x="-70" y="-100" width="60" height="30" as="alternateBounds"/>
                    </mxGeometry>
                </mxCell>
                <mxCell id="215" value="" style="shape=partialRectangle;collapsible=0;dropTarget=0;pointerEvents=0;fillColor=none;top=0;left=0;bottom=1;right=0;points=[[0,0.5],[1,0.5]];portConstraint=eastwest;" vertex="1" parent="214">
                    <mxGeometry y="30" width="200" height="30" as="geometry"/>
                </mxCell>
                <mxCell id="216" value="FK" style="shape=partialRectangle;connectable=0;fillColor=none;top=0;left=0;bottom=0;right=0;fontStyle=1;overflow=hidden;" vertex="1" parent="215">
                    <mxGeometry width="30" height="30" as="geometry">
                        <mxRectangle width="30" height="30" as="alternateBounds"/>
                    </mxGeometry>
                </mxCell>
                <mxCell id="217" value="User" style="shape=partialRectangle;connectable=0;fillColor=none;top=0;left=0;bottom=0;right=0;align=left;spacingLeft=6;fontStyle=5;overflow=hidden;" vertex="1" parent="215">
                    <mxGeometry x="30" width="70" height="30" as="geometry">
                        <mxRectangle width="70" height="30" as="alternateBounds"/>
                    </mxGeometry>
                </mxCell>
                <mxCell id="218" value="INT" style="shape=partialRectangle;connectable=0;fillColor=none;top=0;left=0;bottom=0;right=0;align=left;spacingLeft=6;fontStyle=5;overflow=hidden;" vertex="1" parent="215">
                    <mxGeometry x="100" width="100" height="30" as="geometry">
                        <mxRectangle width="100" height="30" as="alternateBounds"/>
                    </mxGeometry>
                </mxCell>
                <mxCell id="219" style="shape=partialRectangle;collapsible=0;dropTarget=0;pointerEvents=0;fillColor=none;top=0;left=0;bottom=1;right=0;points=[[0,0.5],[1,0.5]];portConstraint=eastwest;" vertex="1" parent="214">
                    <mxGeometry y="60" width="200" height="30" as="geometry"/>
                </mxCell>
                <mxCell id="220" value="FK" style="shape=partialRectangle;connectable=0;fillColor=none;top=0;left=0;bottom=0;right=0;fontStyle=1;overflow=hidden;" vertex="1" parent="219">
                    <mxGeometry width="30" height="30" as="geometry">
                        <mxRectangle width="30" height="30" as="alternateBounds"/>
                    </mxGeometry>
                </mxCell>
                <mxCell id="221" value="Channel" style="shape=partialRectangle;connectable=0;fillColor=none;top=0;left=0;bottom=0;right=0;align=left;spacingLeft=6;fontStyle=5;overflow=hidden;" vertex="1" parent="219">
                    <mxGeometry x="30" width="70" height="30" as="geometry">
                        <mxRectangle width="70" height="30" as="alternateBounds"/>
                    </mxGeometry>
                </mxCell>
                <mxCell id="222" value="INT" style="shape=partialRectangle;connectable=0;fillColor=none;top=0;left=0;bottom=0;right=0;align=left;spacingLeft=6;fontStyle=5;overflow=hidden;" vertex="1" parent="219">
                    <mxGeometry x="100" width="100" height="30" as="geometry">
                        <mxRectangle width="100" height="30" as="alternateBounds"/>
                    </mxGeometry>
                </mxCell>
                <mxCell id="227" value="Messages" style="shape=table;startSize=30;container=1;collapsible=1;childLayout=tableLayout;fixedRows=1;rowLines=0;fontStyle=1;align=center;resizeLast=1;fillColor=#76608a;fontColor=#ffffff;strokeColor=#432D57;" vertex="1" parent="1">
                    <mxGeometry x="280" y="-240" width="200" height="185" as="geometry">
                        <mxRectangle x="-70" y="-100" width="60" height="30" as="alternateBounds"/>
                    </mxGeometry>
                </mxCell>
                <mxCell id="228" value="" style="shape=partialRectangle;collapsible=0;dropTarget=0;pointerEvents=0;fillColor=none;top=0;left=0;bottom=1;right=0;points=[[0,0.5],[1,0.5]];portConstraint=eastwest;" vertex="1" parent="227">
                    <mxGeometry y="30" width="200" height="30" as="geometry"/>
                </mxCell>
                <mxCell id="229" value="PK" style="shape=partialRectangle;connectable=0;fillColor=none;top=0;left=0;bottom=0;right=0;fontStyle=1;overflow=hidden;" vertex="1" parent="228">
                    <mxGeometry width="30" height="30" as="geometry">
                        <mxRectangle width="30" height="30" as="alternateBounds"/>
                    </mxGeometry>
                </mxCell>
                <mxCell id="230" value="ID" style="shape=partialRectangle;connectable=0;fillColor=none;top=0;left=0;bottom=0;right=0;align=left;spacingLeft=6;fontStyle=5;overflow=hidden;" vertex="1" parent="228">
                    <mxGeometry x="30" width="70" height="30" as="geometry">
                        <mxRectangle width="70" height="30" as="alternateBounds"/>
                    </mxGeometry>
                </mxCell>
                <mxCell id="231" value="INT" style="shape=partialRectangle;connectable=0;fillColor=none;top=0;left=0;bottom=0;right=0;align=left;spacingLeft=6;fontStyle=5;overflow=hidden;" vertex="1" parent="228">
                    <mxGeometry x="100" width="100" height="30" as="geometry">
                        <mxRectangle width="100" height="30" as="alternateBounds"/>
                    </mxGeometry>
                </mxCell>
                <mxCell id="232" style="shape=partialRectangle;collapsible=0;dropTarget=0;pointerEvents=0;fillColor=none;top=0;left=0;bottom=1;right=0;points=[[0,0.5],[1,0.5]];portConstraint=eastwest;" vertex="1" parent="227">
                    <mxGeometry y="60" width="200" height="30" as="geometry"/>
                </mxCell>
                <mxCell id="233" value="FK" style="shape=partialRectangle;connectable=0;fillColor=none;top=0;left=0;bottom=0;right=0;fontStyle=1;overflow=hidden;" vertex="1" parent="232">
                    <mxGeometry width="30" height="30" as="geometry">
                        <mxRectangle width="30" height="30" as="alternateBounds"/>
                    </mxGeometry>
                </mxCell>
                <mxCell id="234" value="Creator" style="shape=partialRectangle;connectable=0;fillColor=none;top=0;left=0;bottom=0;right=0;align=left;spacingLeft=6;fontStyle=5;overflow=hidden;" vertex="1" parent="232">
                    <mxGeometry x="30" width="70" height="30" as="geometry">
                        <mxRectangle width="70" height="30" as="alternateBounds"/>
                    </mxGeometry>
                </mxCell>
                <mxCell id="235" value="INT" style="shape=partialRectangle;connectable=0;fillColor=none;top=0;left=0;bottom=0;right=0;align=left;spacingLeft=6;fontStyle=5;overflow=hidden;" vertex="1" parent="232">
                    <mxGeometry x="100" width="100" height="30" as="geometry">
                        <mxRectangle width="100" height="30" as="alternateBounds"/>
                    </mxGeometry>
                </mxCell>
                <mxCell id="240" style="shape=partialRectangle;collapsible=0;dropTarget=0;pointerEvents=0;fillColor=none;top=0;left=0;bottom=1;right=0;points=[[0,0.5],[1,0.5]];portConstraint=eastwest;" vertex="1" parent="227">
                    <mxGeometry y="90" width="200" height="30" as="geometry"/>
                </mxCell>
                <mxCell id="241" value="FK" style="shape=partialRectangle;connectable=0;fillColor=none;top=0;left=0;bottom=0;right=0;fontStyle=1;overflow=hidden;" vertex="1" parent="240">
                    <mxGeometry width="30" height="30" as="geometry">
                        <mxRectangle width="30" height="30" as="alternateBounds"/>
                    </mxGeometry>
                </mxCell>
                <mxCell id="242" value="Channel" style="shape=partialRectangle;connectable=0;fillColor=none;top=0;left=0;bottom=0;right=0;align=left;spacingLeft=6;fontStyle=5;overflow=hidden;" vertex="1" parent="240">
                    <mxGeometry x="30" width="70" height="30" as="geometry">
                        <mxRectangle width="70" height="30" as="alternateBounds"/>
                    </mxGeometry>
                </mxCell>
                <mxCell id="243" value="INT" style="shape=partialRectangle;connectable=0;fillColor=none;top=0;left=0;bottom=0;right=0;align=left;spacingLeft=6;fontStyle=5;overflow=hidden;" vertex="1" parent="240">
                    <mxGeometry x="100" width="100" height="30" as="geometry">
                        <mxRectangle width="100" height="30" as="alternateBounds"/>
                    </mxGeometry>
                </mxCell>
                <mxCell id="236" value="" style="shape=partialRectangle;collapsible=0;dropTarget=0;pointerEvents=0;fillColor=none;top=0;left=0;bottom=0;right=0;points=[[0,0.5],[1,0.5]];portConstraint=eastwest;" vertex="1" parent="227">
                    <mxGeometry y="120" width="200" height="30" as="geometry"/>
                </mxCell>
                <mxCell id="237" value="" style="shape=partialRectangle;connectable=0;fillColor=none;top=0;left=0;bottom=0;right=0;editable=1;overflow=hidden;" vertex="1" parent="236">
                    <mxGeometry width="30" height="30" as="geometry">
                        <mxRectangle width="30" height="30" as="alternateBounds"/>
                    </mxGeometry>
                </mxCell>
                <mxCell id="238" value="Content" style="shape=partialRectangle;connectable=0;fillColor=none;top=0;left=0;bottom=0;right=0;align=left;spacingLeft=6;overflow=hidden;" vertex="1" parent="236">
                    <mxGeometry x="30" width="70" height="30" as="geometry">
                        <mxRectangle width="70" height="30" as="alternateBounds"/>
                    </mxGeometry>
                </mxCell>
                <mxCell id="239" value="TEXT" style="shape=partialRectangle;connectable=0;fillColor=none;top=0;left=0;bottom=0;right=0;align=left;spacingLeft=6;overflow=hidden;" vertex="1" parent="236">
                    <mxGeometry x="100" width="100" height="30" as="geometry">
                        <mxRectangle width="100" height="30" as="alternateBounds"/>
                    </mxGeometry>
                </mxCell>
                <mxCell id="331" style="shape=partialRectangle;collapsible=0;dropTarget=0;pointerEvents=0;fillColor=none;top=0;left=0;bottom=0;right=0;points=[[0,0.5],[1,0.5]];portConstraint=eastwest;" vertex="1" parent="227">
                    <mxGeometry y="150" width="200" height="30" as="geometry"/>
                </mxCell>
                <mxCell id="332" style="shape=partialRectangle;connectable=0;fillColor=none;top=0;left=0;bottom=0;right=0;editable=1;overflow=hidden;" vertex="1" parent="331">
                    <mxGeometry width="30" height="30" as="geometry">
                        <mxRectangle width="30" height="30" as="alternateBounds"/>
                    </mxGeometry>
                </mxCell>
                <mxCell id="333" value="Timestamp" style="shape=partialRectangle;connectable=0;fillColor=none;top=0;left=0;bottom=0;right=0;align=left;spacingLeft=6;overflow=hidden;" vertex="1" parent="331">
                    <mxGeometry x="30" width="70" height="30" as="geometry">
                        <mxRectangle width="70" height="30" as="alternateBounds"/>
                    </mxGeometry>
                </mxCell>
                <mxCell id="334" value="TIMESTAMP" style="shape=partialRectangle;connectable=0;fillColor=none;top=0;left=0;bottom=0;right=0;align=left;spacingLeft=6;overflow=hidden;" vertex="1" parent="331">
                    <mxGeometry x="100" width="100" height="30" as="geometry">
                        <mxRectangle width="100" height="30" as="alternateBounds"/>
                    </mxGeometry>
                </mxCell>
                <mxCell id="244" value="Matches" style="shape=table;startSize=30;container=1;collapsible=1;childLayout=tableLayout;fixedRows=1;rowLines=0;fontStyle=1;align=center;resizeLast=1;fillColor=#fa6800;fontColor=#000000;strokeColor=#C73500;" vertex="1" parent="1">
                    <mxGeometry x="-430" y="-40" width="270" height="185" as="geometry">
                        <mxRectangle x="-70" y="-100" width="60" height="30" as="alternateBounds"/>
                    </mxGeometry>
                </mxCell>
                <mxCell id="249" style="shape=partialRectangle;collapsible=0;dropTarget=0;pointerEvents=0;fillColor=none;top=0;left=0;bottom=1;right=0;points=[[0,0.5],[1,0.5]];portConstraint=eastwest;" vertex="1" parent="244">
                    <mxGeometry y="30" width="270" height="30" as="geometry"/>
                </mxCell>
                <mxCell id="250" value="FK" style="shape=partialRectangle;connectable=0;fillColor=none;top=0;left=0;bottom=0;right=0;fontStyle=1;overflow=hidden;" vertex="1" parent="249">
                    <mxGeometry width="30" height="30" as="geometry">
                        <mxRectangle width="30" height="30" as="alternateBounds"/>
                    </mxGeometry>
                </mxCell>
                <mxCell id="251" value="User1" style="shape=partialRectangle;connectable=0;fillColor=none;top=0;left=0;bottom=0;right=0;align=left;spacingLeft=6;fontStyle=5;overflow=hidden;" vertex="1" parent="249">
                    <mxGeometry x="30" width="110.00000000000023" height="30" as="geometry">
                        <mxRectangle width="110.00000000000023" height="30" as="alternateBounds"/>
                    </mxGeometry>
                </mxCell>
                <mxCell id="252" value="INT" style="shape=partialRectangle;connectable=0;fillColor=none;top=0;left=0;bottom=0;right=0;align=left;spacingLeft=6;fontStyle=5;overflow=hidden;" vertex="1" parent="249">
                    <mxGeometry x="140.00000000000023" width="129.99999999999977" height="30" as="geometry">
                        <mxRectangle width="129.99999999999977" height="30" as="alternateBounds"/>
                    </mxGeometry>
                </mxCell>
                <mxCell id="253" style="shape=partialRectangle;collapsible=0;dropTarget=0;pointerEvents=0;fillColor=none;top=0;left=0;bottom=1;right=0;points=[[0,0.5],[1,0.5]];portConstraint=eastwest;" vertex="1" parent="244">
                    <mxGeometry y="60" width="270" height="30" as="geometry"/>
                </mxCell>
                <mxCell id="254" value="FK" style="shape=partialRectangle;connectable=0;fillColor=none;top=0;left=0;bottom=0;right=0;fontStyle=1;overflow=hidden;" vertex="1" parent="253">
                    <mxGeometry width="30" height="30" as="geometry">
                        <mxRectangle width="30" height="30" as="alternateBounds"/>
                    </mxGeometry>
                </mxCell>
                <mxCell id="255" value="User2" style="shape=partialRectangle;connectable=0;fillColor=none;top=0;left=0;bottom=0;right=0;align=left;spacingLeft=6;fontStyle=5;overflow=hidden;" vertex="1" parent="253">
                    <mxGeometry x="30" width="110.00000000000023" height="30" as="geometry">
                        <mxRectangle width="110.00000000000023" height="30" as="alternateBounds"/>
                    </mxGeometry>
                </mxCell>
                <mxCell id="256" value="INT" style="shape=partialRectangle;connectable=0;fillColor=none;top=0;left=0;bottom=0;right=0;align=left;spacingLeft=6;fontStyle=5;overflow=hidden;" vertex="1" parent="253">
                    <mxGeometry x="140.00000000000023" width="129.99999999999977" height="30" as="geometry">
                        <mxRectangle width="129.99999999999977" height="30" as="alternateBounds"/>
                    </mxGeometry>
                </mxCell>
                <mxCell id="257" value="" style="shape=partialRectangle;collapsible=0;dropTarget=0;pointerEvents=0;fillColor=none;top=0;left=0;bottom=0;right=0;points=[[0,0.5],[1,0.5]];portConstraint=eastwest;" vertex="1" parent="244">
                    <mxGeometry y="90" width="270" height="30" as="geometry"/>
                </mxCell>
                <mxCell id="258" value="" style="shape=partialRectangle;connectable=0;fillColor=none;top=0;left=0;bottom=0;right=0;editable=1;overflow=hidden;" vertex="1" parent="257">
                    <mxGeometry width="30" height="30" as="geometry">
                        <mxRectangle width="30" height="30" as="alternateBounds"/>
                    </mxGeometry>
                </mxCell>
                <mxCell id="259" value="User1Score" style="shape=partialRectangle;connectable=0;fillColor=none;top=0;left=0;bottom=0;right=0;align=left;spacingLeft=6;overflow=hidden;" vertex="1" parent="257">
                    <mxGeometry x="30" width="110.00000000000023" height="30" as="geometry">
                        <mxRectangle width="110.00000000000023" height="30" as="alternateBounds"/>
                    </mxGeometry>
                </mxCell>
                <mxCell id="260" value="INT" style="shape=partialRectangle;connectable=0;fillColor=none;top=0;left=0;bottom=0;right=0;align=left;spacingLeft=6;overflow=hidden;" vertex="1" parent="257">
                    <mxGeometry x="140.00000000000023" width="129.99999999999977" height="30" as="geometry">
                        <mxRectangle width="129.99999999999977" height="30" as="alternateBounds"/>
                    </mxGeometry>
                </mxCell>
                <mxCell id="316" style="shape=partialRectangle;collapsible=0;dropTarget=0;pointerEvents=0;fillColor=none;top=0;left=0;bottom=0;right=0;points=[[0,0.5],[1,0.5]];portConstraint=eastwest;" vertex="1" parent="244">
                    <mxGeometry y="120" width="270" height="30" as="geometry"/>
                </mxCell>
                <mxCell id="317" style="shape=partialRectangle;connectable=0;fillColor=none;top=0;left=0;bottom=0;right=0;editable=1;overflow=hidden;" vertex="1" parent="316">
                    <mxGeometry width="30" height="30" as="geometry">
                        <mxRectangle width="30" height="30" as="alternateBounds"/>
                    </mxGeometry>
                </mxCell>
                <mxCell id="318" value="User2Score" style="shape=partialRectangle;connectable=0;fillColor=none;top=0;left=0;bottom=0;right=0;align=left;spacingLeft=6;overflow=hidden;" vertex="1" parent="316">
                    <mxGeometry x="30" width="110.00000000000023" height="30" as="geometry">
                        <mxRectangle width="110.00000000000023" height="30" as="alternateBounds"/>
                    </mxGeometry>
                </mxCell>
                <mxCell id="319" value="INT" style="shape=partialRectangle;connectable=0;fillColor=none;top=0;left=0;bottom=0;right=0;align=left;spacingLeft=6;overflow=hidden;" vertex="1" parent="316">
                    <mxGeometry x="140.00000000000023" width="129.99999999999977" height="30" as="geometry">
                        <mxRectangle width="129.99999999999977" height="30" as="alternateBounds"/>
                    </mxGeometry>
                </mxCell>
                <mxCell id="320" style="shape=partialRectangle;collapsible=0;dropTarget=0;pointerEvents=0;fillColor=none;top=0;left=0;bottom=0;right=0;points=[[0,0.5],[1,0.5]];portConstraint=eastwest;" vertex="1" parent="244">
                    <mxGeometry y="150" width="270" height="30" as="geometry"/>
                </mxCell>
                <mxCell id="321" style="shape=partialRectangle;connectable=0;fillColor=none;top=0;left=0;bottom=0;right=0;editable=1;overflow=hidden;" vertex="1" parent="320">
                    <mxGeometry width="30" height="30" as="geometry">
                        <mxRectangle width="30" height="30" as="alternateBounds"/>
                    </mxGeometry>
                </mxCell>
                <mxCell id="322" value="Timestamp" style="shape=partialRectangle;connectable=0;fillColor=none;top=0;left=0;bottom=0;right=0;align=left;spacingLeft=6;overflow=hidden;" vertex="1" parent="320">
                    <mxGeometry x="30" width="110.00000000000023" height="30" as="geometry">
                        <mxRectangle width="110.00000000000023" height="30" as="alternateBounds"/>
                    </mxGeometry>
                </mxCell>
                <mxCell id="323" value="TIMESTAMP" style="shape=partialRectangle;connectable=0;fillColor=none;top=0;left=0;bottom=0;right=0;align=left;spacingLeft=6;overflow=hidden;" vertex="1" parent="320">
                    <mxGeometry x="140.00000000000023" width="129.99999999999977" height="30" as="geometry">
                        <mxRectangle width="129.99999999999977" height="30" as="alternateBounds"/>
                    </mxGeometry>
                </mxCell>
                <mxCell id="261" value="BlockedUsers" style="shape=table;startSize=30;container=1;collapsible=1;childLayout=tableLayout;fixedRows=1;rowLines=0;fontStyle=1;align=center;resizeLast=1;fillColor=#76608a;fontColor=#ffffff;strokeColor=#432D57;" vertex="1" parent="1">
                    <mxGeometry x="-80" y="280" width="220" height="95" as="geometry">
                        <mxRectangle x="-70" y="-100" width="60" height="30" as="alternateBounds"/>
                    </mxGeometry>
                </mxCell>
                <mxCell id="266" style="shape=partialRectangle;collapsible=0;dropTarget=0;pointerEvents=0;fillColor=none;top=0;left=0;bottom=1;right=0;points=[[0,0.5],[1,0.5]];portConstraint=eastwest;" vertex="1" parent="261">
                    <mxGeometry y="30" width="220" height="30" as="geometry"/>
                </mxCell>
                <mxCell id="267" value="FK" style="shape=partialRectangle;connectable=0;fillColor=none;top=0;left=0;bottom=0;right=0;fontStyle=1;overflow=hidden;" vertex="1" parent="266">
                    <mxGeometry width="30" height="30" as="geometry">
                        <mxRectangle width="30" height="30" as="alternateBounds"/>
                    </mxGeometry>
                </mxCell>
                <mxCell id="268" value="BlockingUser" style="shape=partialRectangle;connectable=0;fillColor=none;top=0;left=0;bottom=0;right=0;align=left;spacingLeft=6;fontStyle=5;overflow=hidden;" vertex="1" parent="266">
                    <mxGeometry x="30" width="90.00000000000023" height="30" as="geometry">
                        <mxRectangle width="90.00000000000023" height="30" as="alternateBounds"/>
                    </mxGeometry>
                </mxCell>
                <mxCell id="269" value="INT" style="shape=partialRectangle;connectable=0;fillColor=none;top=0;left=0;bottom=0;right=0;align=left;spacingLeft=6;fontStyle=5;overflow=hidden;" vertex="1" parent="266">
                    <mxGeometry x="120.00000000000023" width="99.99999999999977" height="30" as="geometry">
                        <mxRectangle width="99.99999999999977" height="30" as="alternateBounds"/>
                    </mxGeometry>
                </mxCell>
                <mxCell id="270" style="shape=partialRectangle;collapsible=0;dropTarget=0;pointerEvents=0;fillColor=none;top=0;left=0;bottom=1;right=0;points=[[0,0.5],[1,0.5]];portConstraint=eastwest;" vertex="1" parent="261">
                    <mxGeometry y="60" width="220" height="30" as="geometry"/>
                </mxCell>
                <mxCell id="271" value="FK" style="shape=partialRectangle;connectable=0;fillColor=none;top=0;left=0;bottom=0;right=0;fontStyle=1;overflow=hidden;" vertex="1" parent="270">
                    <mxGeometry width="30" height="30" as="geometry">
                        <mxRectangle width="30" height="30" as="alternateBounds"/>
                    </mxGeometry>
                </mxCell>
                <mxCell id="272" value="BlockedUser" style="shape=partialRectangle;connectable=0;fillColor=none;top=0;left=0;bottom=0;right=0;align=left;spacingLeft=6;fontStyle=5;overflow=hidden;" vertex="1" parent="270">
                    <mxGeometry x="30" width="90.00000000000023" height="30" as="geometry">
                        <mxRectangle width="90.00000000000023" height="30" as="alternateBounds"/>
                    </mxGeometry>
                </mxCell>
                <mxCell id="273" value="INT" style="shape=partialRectangle;connectable=0;fillColor=none;top=0;left=0;bottom=0;right=0;align=left;spacingLeft=6;fontStyle=5;overflow=hidden;" vertex="1" parent="270">
                    <mxGeometry x="120.00000000000023" width="99.99999999999977" height="30" as="geometry">
                        <mxRectangle width="99.99999999999977" height="30" as="alternateBounds"/>
                    </mxGeometry>
                </mxCell>
                <mxCell id="278" value="Friends" style="shape=table;startSize=30;container=1;collapsible=1;childLayout=tableLayout;fixedRows=1;rowLines=0;fontStyle=1;align=center;resizeLast=1;fillColor=#60a917;fontColor=#ffffff;strokeColor=#2D7600;" vertex="1" parent="1">
                    <mxGeometry x="-76.5" y="-280" width="213" height="155" as="geometry">
                        <mxRectangle x="-70" y="-100" width="60" height="30" as="alternateBounds"/>
                    </mxGeometry>
                </mxCell>
                <mxCell id="279" value="" style="shape=partialRectangle;collapsible=0;dropTarget=0;pointerEvents=0;fillColor=none;top=0;left=0;bottom=1;right=0;points=[[0,0.5],[1,0.5]];portConstraint=eastwest;" vertex="1" parent="278">
                    <mxGeometry y="30" width="213" height="30" as="geometry"/>
                </mxCell>
                <mxCell id="280" value="FK" style="shape=partialRectangle;connectable=0;fillColor=none;top=0;left=0;bottom=0;right=0;fontStyle=1;overflow=hidden;" vertex="1" parent="279">
                    <mxGeometry width="30" height="30" as="geometry">
                        <mxRectangle width="30" height="30" as="alternateBounds"/>
                    </mxGeometry>
                </mxCell>
                <mxCell id="281" value="User1" style="shape=partialRectangle;connectable=0;fillColor=none;top=0;left=0;bottom=0;right=0;align=left;spacingLeft=6;fontStyle=5;overflow=hidden;" vertex="1" parent="279">
                    <mxGeometry x="30" width="110" height="30" as="geometry">
                        <mxRectangle width="110" height="30" as="alternateBounds"/>
                    </mxGeometry>
                </mxCell>
                <mxCell id="282" value="INT" style="shape=partialRectangle;connectable=0;fillColor=none;top=0;left=0;bottom=0;right=0;align=left;spacingLeft=6;fontStyle=5;overflow=hidden;" vertex="1" parent="279">
                    <mxGeometry x="140" width="73" height="30" as="geometry">
                        <mxRectangle width="73" height="30" as="alternateBounds"/>
                    </mxGeometry>
                </mxCell>
                <mxCell id="283" style="shape=partialRectangle;collapsible=0;dropTarget=0;pointerEvents=0;fillColor=none;top=0;left=0;bottom=1;right=0;points=[[0,0.5],[1,0.5]];portConstraint=eastwest;" vertex="1" parent="278">
                    <mxGeometry y="60" width="213" height="30" as="geometry"/>
                </mxCell>
                <mxCell id="284" value="FK" style="shape=partialRectangle;connectable=0;fillColor=none;top=0;left=0;bottom=0;right=0;fontStyle=1;overflow=hidden;" vertex="1" parent="283">
                    <mxGeometry width="30" height="30" as="geometry">
                        <mxRectangle width="30" height="30" as="alternateBounds"/>
                    </mxGeometry>
                </mxCell>
                <mxCell id="285" value="User2" style="shape=partialRectangle;connectable=0;fillColor=none;top=0;left=0;bottom=0;right=0;align=left;spacingLeft=6;fontStyle=5;overflow=hidden;" vertex="1" parent="283">
                    <mxGeometry x="30" width="110" height="30" as="geometry">
                        <mxRectangle width="110" height="30" as="alternateBounds"/>
                    </mxGeometry>
                </mxCell>
                <mxCell id="286" value="INT" style="shape=partialRectangle;connectable=0;fillColor=none;top=0;left=0;bottom=0;right=0;align=left;spacingLeft=6;fontStyle=5;overflow=hidden;" vertex="1" parent="283">
                    <mxGeometry x="140" width="73" height="30" as="geometry">
                        <mxRectangle width="73" height="30" as="alternateBounds"/>
                    </mxGeometry>
                </mxCell>
                <mxCell id="291" value="" style="shape=partialRectangle;collapsible=0;dropTarget=0;pointerEvents=0;fillColor=none;top=0;left=0;bottom=0;right=0;points=[[0,0.5],[1,0.5]];portConstraint=eastwest;" vertex="1" parent="278">
                    <mxGeometry y="90" width="213" height="30" as="geometry"/>
                </mxCell>
                <mxCell id="292" value="" style="shape=partialRectangle;connectable=0;fillColor=none;top=0;left=0;bottom=0;right=0;editable=1;overflow=hidden;" vertex="1" parent="291">
                    <mxGeometry width="30" height="30" as="geometry">
                        <mxRectangle width="30" height="30" as="alternateBounds"/>
                    </mxGeometry>
                </mxCell>
                <mxCell id="293" value="User1Aceppted" style="shape=partialRectangle;connectable=0;fillColor=none;top=0;left=0;bottom=0;right=0;align=left;spacingLeft=6;overflow=hidden;" vertex="1" parent="291">
                    <mxGeometry x="30" width="110" height="30" as="geometry">
                        <mxRectangle width="110" height="30" as="alternateBounds"/>
                    </mxGeometry>
                </mxCell>
                <mxCell id="294" value="BIT" style="shape=partialRectangle;connectable=0;fillColor=none;top=0;left=0;bottom=0;right=0;align=left;spacingLeft=6;overflow=hidden;" vertex="1" parent="291">
                    <mxGeometry x="140" width="73" height="30" as="geometry">
                        <mxRectangle width="73" height="30" as="alternateBounds"/>
                    </mxGeometry>
                </mxCell>
                <mxCell id="312" style="shape=partialRectangle;collapsible=0;dropTarget=0;pointerEvents=0;fillColor=none;top=0;left=0;bottom=0;right=0;points=[[0,0.5],[1,0.5]];portConstraint=eastwest;" vertex="1" parent="278">
                    <mxGeometry y="120" width="213" height="30" as="geometry"/>
                </mxCell>
                <mxCell id="313" style="shape=partialRectangle;connectable=0;fillColor=none;top=0;left=0;bottom=0;right=0;editable=1;overflow=hidden;" vertex="1" parent="312">
                    <mxGeometry width="30" height="30" as="geometry">
                        <mxRectangle width="30" height="30" as="alternateBounds"/>
                    </mxGeometry>
                </mxCell>
                <mxCell id="314" value="User2Accepted" style="shape=partialRectangle;connectable=0;fillColor=none;top=0;left=0;bottom=0;right=0;align=left;spacingLeft=6;overflow=hidden;" vertex="1" parent="312">
                    <mxGeometry x="30" width="110" height="30" as="geometry">
                        <mxRectangle width="110" height="30" as="alternateBounds"/>
                    </mxGeometry>
                </mxCell>
                <mxCell id="315" value="BIT" style="shape=partialRectangle;connectable=0;fillColor=none;top=0;left=0;bottom=0;right=0;align=left;spacingLeft=6;overflow=hidden;" vertex="1" parent="312">
                    <mxGeometry x="140" width="73" height="30" as="geometry">
                        <mxRectangle width="73" height="30" as="alternateBounds"/>
                    </mxGeometry>
                </mxCell>
                <mxCell id="352" value="ChannelsAdmins" style="shape=table;startSize=30;container=1;collapsible=1;childLayout=tableLayout;fixedRows=1;rowLines=0;fontStyle=1;align=center;resizeLast=1;fillColor=#76608a;fontColor=#ffffff;strokeColor=#432D57;" vertex="1" parent="1">
                    <mxGeometry x="280" y="-40" width="200" height="95" as="geometry">
                        <mxRectangle x="-70" y="-100" width="60" height="30" as="alternateBounds"/>
                    </mxGeometry>
                </mxCell>
                <mxCell id="357" style="shape=partialRectangle;collapsible=0;dropTarget=0;pointerEvents=0;fillColor=none;top=0;left=0;bottom=1;right=0;points=[[0,0.5],[1,0.5]];portConstraint=eastwest;" vertex="1" parent="352">
                    <mxGeometry y="30" width="200" height="30" as="geometry"/>
                </mxCell>
                <mxCell id="358" value="FK" style="shape=partialRectangle;connectable=0;fillColor=none;top=0;left=0;bottom=0;right=0;fontStyle=1;overflow=hidden;" vertex="1" parent="357">
                    <mxGeometry width="30" height="30" as="geometry">
                        <mxRectangle width="30" height="30" as="alternateBounds"/>
                    </mxGeometry>
                </mxCell>
                <mxCell id="359" value="Channel" style="shape=partialRectangle;connectable=0;fillColor=none;top=0;left=0;bottom=0;right=0;align=left;spacingLeft=6;fontStyle=5;overflow=hidden;" vertex="1" parent="357">
                    <mxGeometry x="30" width="70" height="30" as="geometry">
                        <mxRectangle width="70" height="30" as="alternateBounds"/>
                    </mxGeometry>
                </mxCell>
                <mxCell id="360" value="INT" style="shape=partialRectangle;connectable=0;fillColor=none;top=0;left=0;bottom=0;right=0;align=left;spacingLeft=6;fontStyle=5;overflow=hidden;" vertex="1" parent="357">
                    <mxGeometry x="100" width="100" height="30" as="geometry">
                        <mxRectangle width="100" height="30" as="alternateBounds"/>
                    </mxGeometry>
                </mxCell>
                <mxCell id="361" style="shape=partialRectangle;collapsible=0;dropTarget=0;pointerEvents=0;fillColor=none;top=0;left=0;bottom=1;right=0;points=[[0,0.5],[1,0.5]];portConstraint=eastwest;" vertex="1" parent="352">
                    <mxGeometry y="60" width="200" height="30" as="geometry"/>
                </mxCell>
                <mxCell id="362" value="FK" style="shape=partialRectangle;connectable=0;fillColor=none;top=0;left=0;bottom=0;right=0;fontStyle=1;overflow=hidden;" vertex="1" parent="361">
                    <mxGeometry width="30" height="30" as="geometry">
                        <mxRectangle width="30" height="30" as="alternateBounds"/>
                    </mxGeometry>
                </mxCell>
                <mxCell id="363" value="User" style="shape=partialRectangle;connectable=0;fillColor=none;top=0;left=0;bottom=0;right=0;align=left;spacingLeft=6;fontStyle=5;overflow=hidden;" vertex="1" parent="361">
                    <mxGeometry x="30" width="70" height="30" as="geometry">
                        <mxRectangle width="70" height="30" as="alternateBounds"/>
                    </mxGeometry>
                </mxCell>
                <mxCell id="364" value="INT" style="shape=partialRectangle;connectable=0;fillColor=none;top=0;left=0;bottom=0;right=0;align=left;spacingLeft=6;fontStyle=5;overflow=hidden;" vertex="1" parent="361">
                    <mxGeometry x="100" width="100" height="30" as="geometry">
                        <mxRectangle width="100" height="30" as="alternateBounds"/>
                    </mxGeometry>
                </mxCell>
                <mxCell id="376" value="MutedUsers" style="shape=table;startSize=30;container=1;collapsible=1;childLayout=tableLayout;fixedRows=1;rowLines=0;fontStyle=1;align=center;resizeLast=1;fillColor=#76608a;fontColor=#ffffff;strokeColor=#432D57;" vertex="1" parent="1">
                    <mxGeometry x="280" y="80" width="200" height="125" as="geometry">
                        <mxRectangle x="-70" y="-100" width="60" height="30" as="alternateBounds"/>
                    </mxGeometry>
                </mxCell>
                <mxCell id="381" style="shape=partialRectangle;collapsible=0;dropTarget=0;pointerEvents=0;fillColor=none;top=0;left=0;bottom=1;right=0;points=[[0,0.5],[1,0.5]];portConstraint=eastwest;" vertex="1" parent="376">
                    <mxGeometry y="30" width="200" height="30" as="geometry"/>
                </mxCell>
                <mxCell id="382" value="FK" style="shape=partialRectangle;connectable=0;fillColor=none;top=0;left=0;bottom=0;right=0;fontStyle=1;overflow=hidden;" vertex="1" parent="381">
                    <mxGeometry width="30" height="30" as="geometry">
                        <mxRectangle width="30" height="30" as="alternateBounds"/>
                    </mxGeometry>
                </mxCell>
                <mxCell id="383" value="MutedUser" style="shape=partialRectangle;connectable=0;fillColor=none;top=0;left=0;bottom=0;right=0;align=left;spacingLeft=6;fontStyle=5;overflow=hidden;" vertex="1" parent="381">
                    <mxGeometry x="30" width="70" height="30" as="geometry">
                        <mxRectangle width="70" height="30" as="alternateBounds"/>
                    </mxGeometry>
                </mxCell>
                <mxCell id="384" value="INT" style="shape=partialRectangle;connectable=0;fillColor=none;top=0;left=0;bottom=0;right=0;align=left;spacingLeft=6;fontStyle=5;overflow=hidden;" vertex="1" parent="381">
                    <mxGeometry x="100" width="100" height="30" as="geometry">
                        <mxRectangle width="100" height="30" as="alternateBounds"/>
                    </mxGeometry>
                </mxCell>
                <mxCell id="385" style="shape=partialRectangle;collapsible=0;dropTarget=0;pointerEvents=0;fillColor=none;top=0;left=0;bottom=1;right=0;points=[[0,0.5],[1,0.5]];portConstraint=eastwest;" vertex="1" parent="376">
                    <mxGeometry y="60" width="200" height="30" as="geometry"/>
                </mxCell>
                <mxCell id="386" value="FK" style="shape=partialRectangle;connectable=0;fillColor=none;top=0;left=0;bottom=0;right=0;fontStyle=1;overflow=hidden;" vertex="1" parent="385">
                    <mxGeometry width="30" height="30" as="geometry">
                        <mxRectangle width="30" height="30" as="alternateBounds"/>
                    </mxGeometry>
                </mxCell>
                <mxCell id="387" value="Channel" style="shape=partialRectangle;connectable=0;fillColor=none;top=0;left=0;bottom=0;right=0;align=left;spacingLeft=6;fontStyle=5;overflow=hidden;" vertex="1" parent="385">
                    <mxGeometry x="30" width="70" height="30" as="geometry">
                        <mxRectangle width="70" height="30" as="alternateBounds"/>
                    </mxGeometry>
                </mxCell>
                <mxCell id="388" value="INT" style="shape=partialRectangle;connectable=0;fillColor=none;top=0;left=0;bottom=0;right=0;align=left;spacingLeft=6;fontStyle=5;overflow=hidden;" vertex="1" parent="385">
                    <mxGeometry x="100" width="100" height="30" as="geometry">
                        <mxRectangle width="100" height="30" as="alternateBounds"/>
                    </mxGeometry>
                </mxCell>
                <mxCell id="393" style="shape=partialRectangle;collapsible=0;dropTarget=0;pointerEvents=0;fillColor=none;top=0;left=0;bottom=0;right=0;points=[[0,0.5],[1,0.5]];portConstraint=eastwest;" vertex="1" parent="376">
                    <mxGeometry y="90" width="200" height="30" as="geometry"/>
                </mxCell>
                <mxCell id="394" style="shape=partialRectangle;connectable=0;fillColor=none;top=0;left=0;bottom=0;right=0;editable=1;overflow=hidden;" vertex="1" parent="393">
                    <mxGeometry width="30" height="30" as="geometry">
                        <mxRectangle width="30" height="30" as="alternateBounds"/>
                    </mxGeometry>
                </mxCell>
                <mxCell id="395" value="Until" style="shape=partialRectangle;connectable=0;fillColor=none;top=0;left=0;bottom=0;right=0;align=left;spacingLeft=6;overflow=hidden;" vertex="1" parent="393">
                    <mxGeometry x="30" width="70" height="30" as="geometry">
                        <mxRectangle width="70" height="30" as="alternateBounds"/>
                    </mxGeometry>
                </mxCell>
                <mxCell id="396" value="TIMESTAMP" style="shape=partialRectangle;connectable=0;fillColor=none;top=0;left=0;bottom=0;right=0;align=left;spacingLeft=6;overflow=hidden;" vertex="1" parent="393">
                    <mxGeometry x="100" width="100" height="30" as="geometry">
                        <mxRectangle width="100" height="30" as="alternateBounds"/>
                    </mxGeometry>
                </mxCell>
                <mxCell id="401" value="BannedUsers" style="shape=table;startSize=30;container=1;collapsible=1;childLayout=tableLayout;fixedRows=1;rowLines=0;fontStyle=1;align=center;resizeLast=1;fillColor=#76608a;fontColor=#ffffff;strokeColor=#432D57;" vertex="1" parent="1">
                    <mxGeometry x="280" y="240" width="200" height="125" as="geometry">
                        <mxRectangle x="-70" y="-100" width="60" height="30" as="alternateBounds"/>
                    </mxGeometry>
                </mxCell>
                <mxCell id="402" style="shape=partialRectangle;collapsible=0;dropTarget=0;pointerEvents=0;fillColor=none;top=0;left=0;bottom=1;right=0;points=[[0,0.5],[1,0.5]];portConstraint=eastwest;" vertex="1" parent="401">
                    <mxGeometry y="30" width="200" height="30" as="geometry"/>
                </mxCell>
                <mxCell id="403" value="FK" style="shape=partialRectangle;connectable=0;fillColor=none;top=0;left=0;bottom=0;right=0;fontStyle=1;overflow=hidden;" vertex="1" parent="402">
                    <mxGeometry width="30" height="30" as="geometry">
                        <mxRectangle width="30" height="30" as="alternateBounds"/>
                    </mxGeometry>
                </mxCell>
                <mxCell id="404" value="BannedUser" style="shape=partialRectangle;connectable=0;fillColor=none;top=0;left=0;bottom=0;right=0;align=left;spacingLeft=6;fontStyle=5;overflow=hidden;" vertex="1" parent="402">
                    <mxGeometry x="30" width="90" height="30" as="geometry">
                        <mxRectangle width="90" height="30" as="alternateBounds"/>
                    </mxGeometry>
                </mxCell>
                <mxCell id="405" value="INT" style="shape=partialRectangle;connectable=0;fillColor=none;top=0;left=0;bottom=0;right=0;align=left;spacingLeft=6;fontStyle=5;overflow=hidden;" vertex="1" parent="402">
                    <mxGeometry x="120" width="80" height="30" as="geometry">
                        <mxRectangle width="80" height="30" as="alternateBounds"/>
                    </mxGeometry>
                </mxCell>
                <mxCell id="406" style="shape=partialRectangle;collapsible=0;dropTarget=0;pointerEvents=0;fillColor=none;top=0;left=0;bottom=1;right=0;points=[[0,0.5],[1,0.5]];portConstraint=eastwest;" vertex="1" parent="401">
                    <mxGeometry y="60" width="200" height="30" as="geometry"/>
                </mxCell>
                <mxCell id="407" value="FK" style="shape=partialRectangle;connectable=0;fillColor=none;top=0;left=0;bottom=0;right=0;fontStyle=1;overflow=hidden;" vertex="1" parent="406">
                    <mxGeometry width="30" height="30" as="geometry">
                        <mxRectangle width="30" height="30" as="alternateBounds"/>
                    </mxGeometry>
                </mxCell>
                <mxCell id="408" value="Channel" style="shape=partialRectangle;connectable=0;fillColor=none;top=0;left=0;bottom=0;right=0;align=left;spacingLeft=6;fontStyle=5;overflow=hidden;" vertex="1" parent="406">
                    <mxGeometry x="30" width="90" height="30" as="geometry">
                        <mxRectangle width="90" height="30" as="alternateBounds"/>
                    </mxGeometry>
                </mxCell>
                <mxCell id="409" value="INT" style="shape=partialRectangle;connectable=0;fillColor=none;top=0;left=0;bottom=0;right=0;align=left;spacingLeft=6;fontStyle=5;overflow=hidden;" vertex="1" parent="406">
                    <mxGeometry x="120" width="80" height="30" as="geometry">
                        <mxRectangle width="80" height="30" as="alternateBounds"/>
                    </mxGeometry>
                </mxCell>
                <mxCell id="410" style="shape=partialRectangle;collapsible=0;dropTarget=0;pointerEvents=0;fillColor=none;top=0;left=0;bottom=0;right=0;points=[[0,0.5],[1,0.5]];portConstraint=eastwest;" vertex="1" parent="401">
                    <mxGeometry y="90" width="200" height="30" as="geometry"/>
                </mxCell>
                <mxCell id="411" style="shape=partialRectangle;connectable=0;fillColor=none;top=0;left=0;bottom=0;right=0;editable=1;overflow=hidden;" vertex="1" parent="410">
                    <mxGeometry width="30" height="30" as="geometry">
                        <mxRectangle width="30" height="30" as="alternateBounds"/>
                    </mxGeometry>
                </mxCell>
                <mxCell id="412" value="Until" style="shape=partialRectangle;connectable=0;fillColor=none;top=0;left=0;bottom=0;right=0;align=left;spacingLeft=6;overflow=hidden;" vertex="1" parent="410">
                    <mxGeometry x="30" width="90" height="30" as="geometry">
                        <mxRectangle width="90" height="30" as="alternateBounds"/>
                    </mxGeometry>
                </mxCell>
                <mxCell id="413" value="TIMESTAMP" style="shape=partialRectangle;connectable=0;fillColor=none;top=0;left=0;bottom=0;right=0;align=left;spacingLeft=6;overflow=hidden;" vertex="1" parent="410">
                    <mxGeometry x="120" width="80" height="30" as="geometry">
                        <mxRectangle width="80" height="30" as="alternateBounds"/>
                    </mxGeometry>
                </mxCell>
            </root>
        </mxGraphModel>
    </diagram>
</mxfile>